<?xml version="1.0" encoding="utf-8"?>
<!-- Generator: Adobe Illustrator 16.0.0, SVG Export Plug-In . SVG Version: 6.00 Build 0)  -->
<!DOCTYPE svg PUBLIC "-//W3C//DTD SVG 1.1//EN" "http://www.w3.org/Graphics/SVG/1.1/DTD/svg11.dtd">
<svg version="1.1" xmlns="http://www.w3.org/2000/svg" xmlns:xlink="http://www.w3.org/1999/xlink" x="0px" y="0px" width="1000px"
	 height="1000px" viewBox="0 0 1000 1000" enable-background="new 0 0 1000 1000" xml:space="preserve">
<g id="Calque_1">
	<path fill="none" stroke="#020202" stroke-width="15" stroke-miterlimit="10" d="M229.906,519.21l71.586,278.734
		c0,0,166.895,124.128,232.711,123.149c62.338-0.927,216.854-123.149,216.854-123.149l39.401-283.026l81.724,91.334l-47.215-144.375
		l99.797-8.154L817.232,411.65l52.821-144.009L782.81,384.878L549.815,113.054l-4.139,126.485L308.544,78.9l46.076,191.053
		l-242.944-76.08l94.718,214.696L75.236,549.341l485.739-99.442"/>
	<path fill="#FFFFFF" stroke="#020202" stroke-width="3" stroke-miterlimit="10" d="M348.704,563.366"/>
	<path fill="#FFFFFF" stroke="#020202" stroke-width="3" stroke-miterlimit="10" d="M704.22,563.366"/>
	<path fill="none" stroke="#020202" stroke-width="15" stroke-miterlimit="10" d="M300.895,563.366c0,0,132.45-16.681,172.112,0
		c4.726,1.987,14.343,14.66,14.343,14.66"/>
	<path fill="#FFFFFF" stroke="#020202" stroke-width="15" stroke-miterlimit="10" d="M736.614,563.366c0,0-132.45-16.681-172.112,0
		c-4.726,1.987-14.343,14.66-14.343,14.66"/>
</g>
</svg>
